<svg width="102" height="6" viewBox="0 0 102 6" fill="none" xmlns="http://www.w3.org/2000/svg">
<path d="M6 3C6 4.65685 4.65685 6 3 6C1.34315 6 0 4.65685 0 3C0 1.34315 1.34315 0 3 0C4.65685 0 6 1.34315 6 3Z" fill="#C4C4C4"/>
<path d="M30 3C30 4.65685 28.6569 6 27 6C25.3431 6 24 4.65685 24 3C24 1.34315 25.3431 0 27 0C28.6569 0 30 1.34315 30 3Z" fill="#C4C4C4"/>
<path d="M54 3C54 4.65685 52.6569 6 51 6C49.3431 6 48 4.65685 48 3C48 1.34315 49.3431 0 51 0C52.6569 0 54 1.34315 54 3Z" fill="#C4C4C4"/>
<path d="M78 3C78 4.65685 76.6569 6 75 6C73.3431 6 72 4.65685 72 3C72 1.34315 73.3431 0 75 0C76.6569 0 78 1.34315 78 3Z" fill="#C4C4C4"/>
<path d="M102 3C102 4.65685 100.657 6 99 6C97.3431 6 96 4.65685 96 3C96 1.34315 97.3431 0 99 0C100.657 0 102 1.34315 102 3Z" fill="#C4C4C4"/>
</svg>
